<?xml version="1.0" encoding="UTF-8" standalone="no"?>
<!-- Generator: Adobe Illustrator 16.0.0, SVG Export Plug-In . SVG Version: 6.00 Build 0)  -->

<svg
   xmlns:dc="http://purl.org/dc/elements/1.1/"
   xmlns:cc="http://creativecommons.org/ns#"
   xmlns:rdf="http://www.w3.org/1999/02/22-rdf-syntax-ns#"
   xmlns:svg="http://www.w3.org/2000/svg"
   xmlns="http://www.w3.org/2000/svg"
   xmlns:sodipodi="http://sodipodi.sourceforge.net/DTD/sodipodi-0.dtd"
   xmlns:inkscape="http://www.inkscape.org/namespaces/inkscape"
   version="1.1"
   x="0px"
   y="0px"
   width="50px"
   height="50px"
   viewBox="0 0 50 50"
   enable-background="new 0 0 50 50"
   xml:space="preserve"
   id="svg2"
   inkscape:version="0.48.4 r9939"
   sodipodi:docname="manual_on.svg"><metadata
     id="metadata175"><rdf:RDF><cc:Work
         rdf:about=""><dc:format>image/svg+xml</dc:format><dc:type
           rdf:resource="http://purl.org/dc/dcmitype/StillImage" /><dc:title></dc:title></cc:Work></rdf:RDF></metadata><defs
     id="defs173" /><sodipodi:namedview
     pagecolor="#ffffff"
     bordercolor="#666666"
     borderopacity="1"
     objecttolerance="10"
     gridtolerance="10"
     guidetolerance="10"
     inkscape:pageopacity="0"
     inkscape:pageshadow="2"
     inkscape:window-width="1366"
     inkscape:window-height="706"
     id="namedview171"
     showgrid="false"
     inkscape:zoom="9.44"
     inkscape:cx="28.14684"
     inkscape:cy="35.392423"
     inkscape:window-x="1672"
     inkscape:window-y="-8"
     inkscape:window-maximized="1"
     inkscape:current-layer="svg2" /><g
     id="On_x5F_icon"
     display="none"><path
       display="inline"
       fill-rule="evenodd"
       clip-rule="evenodd"
       fill="#F7903C"
       stroke="#FFFFFF"
       stroke-width="1.5"
       stroke-miterlimit="10"
       d="   M25,0.75c13.393,0,24.25,10.857,24.25,24.251C49.25,38.393,38.393,49.25,25,49.25S0.75,38.393,0.75,25.001   C0.75,11.607,11.607,0.75,25,0.75L25,0.75z"
       id="path5" /><g
       display="inline"
       id="g7"><path
         fill="none"
         stroke="#FFFFFF"
         stroke-width="1.5"
         stroke-miterlimit="10"
         d="M12.764,25c0-0.421,0.148-0.779,0.443-1.073    l2.146-2.147c0.295-0.294,0.652-0.442,1.074-0.442c0.42,0,0.777,0.148,1.072,0.442l4.643,4.658L32.5,16.064    c0.295-0.294,0.652-0.442,1.072-0.442c0.422,0,0.779,0.147,1.074,0.442l2.146,2.147c0.295,0.294,0.443,0.653,0.443,1.073    c0,0.421-0.148,0.779-0.443,1.074l-11.43,11.43l-2.148,2.146c-0.293,0.295-0.652,0.442-1.072,0.442    c-0.422,0-0.779-0.147-1.074-0.442l-2.146-2.146l-5.715-5.715C12.912,25.779,12.764,25.421,12.764,25z"
         id="path9" /></g></g><g
     id="Off_x5F_icon"
     display="none"><path
       display="inline"
       fill-rule="evenodd"
       clip-rule="evenodd"
       fill="none"
       stroke="#FFFFFF"
       stroke-width="1.5"
       stroke-miterlimit="10"
       d="   M25,0.75c13.393,0,24.25,10.857,24.25,24.251C49.25,38.393,38.393,49.25,25,49.25c-13.394,0-24.25-10.857-24.25-24.249   C0.75,11.607,11.606,0.75,25,0.75L25,0.75z"
       id="path12" /><path
       display="inline"
       fill-rule="evenodd"
       clip-rule="evenodd"
       fill="#A7A9AB"
       stroke="#FFFFFF"
       stroke-width="1.5"
       stroke-miterlimit="10"
       d="   M25,0.75c13.393,0,24.25,10.857,24.25,24.251C49.25,38.393,38.393,49.25,25,49.25c-13.394,0-24.25-10.857-24.25-24.249   C0.75,11.607,11.606,0.75,25,0.75L25,0.75z"
       id="path14" /><g
       display="inline"
       id="g16"><path
         fill="none"
         stroke="#FFFFFF"
         stroke-width="1.5"
         stroke-miterlimit="10"
         d="M15.622,30.715c0-0.42,0.147-0.779,0.442-1.073    L20.706,25l-4.642-4.642c-0.295-0.295-0.442-0.653-0.442-1.074s0.147-0.779,0.442-1.073l2.147-2.147    c0.294-0.295,0.652-0.442,1.073-0.442s0.779,0.147,1.073,0.442L25,20.706l4.643-4.642c0.294-0.295,0.652-0.442,1.073-0.442    s0.779,0.147,1.073,0.442l2.147,2.147c0.294,0.294,0.442,0.652,0.442,1.073s-0.148,0.779-0.442,1.074L29.294,25l4.643,4.642    c0.294,0.294,0.442,0.653,0.442,1.073c0,0.422-0.148,0.779-0.442,1.074l-2.147,2.146c-0.294,0.295-0.652,0.442-1.073,0.442    s-0.779-0.147-1.073-0.442L25,29.295l-4.642,4.641c-0.294,0.295-0.652,0.442-1.073,0.442s-0.779-0.147-1.073-0.442l-2.147-2.146    C15.77,31.494,15.622,31.137,15.622,30.715z"
         id="path18" /></g></g><g
     id="Up_x5F_icon"
     display="none"><g
       display="inline"
       id="g21"><path
         fill-rule="evenodd"
         clip-rule="evenodd"
         fill="none"
         stroke="#FFFFFF"
         stroke-width="1.5"
         stroke-miterlimit="10"
         d="    M25,0.75c13.392,0,24.25,10.857,24.25,24.251C49.25,38.393,38.392,49.25,25,49.25c-13.394,0-24.25-10.857-24.25-24.249    C0.75,11.607,11.606,0.75,25,0.75L25,0.75z"
         id="path23" /><path
         fill-rule="evenodd"
         clip-rule="evenodd"
         fill="#302E9E"
         stroke="#FFFFFF"
         stroke-width="1.5"
         stroke-miterlimit="10"
         d="    M25,0.75c13.392,0,24.25,10.857,24.25,24.251C49.25,38.393,38.392,49.25,25,49.25c-13.394,0-24.25-10.857-24.25-24.249    C0.75,11.607,11.606,0.75,25,0.75L25,0.75z"
         id="path25" /><g
         id="g27"><path
           fill="none"
           stroke="#FFFFFF"
           stroke-width="1.5"
           stroke-miterlimit="10"
           d="M25.711,17.122l11.714,11.714     c0.2,0.201,0.3,0.438,0.3,0.711s-0.1,0.511-0.3,0.711l-2.62,2.62c-0.2,0.2-0.438,0.3-0.711,0.3s-0.511-0.1-0.711-0.3L25,24.495     l-8.383,8.383c-0.2,0.2-0.438,0.3-0.711,0.3s-0.511-0.1-0.711-0.3l-2.62-2.62c-0.2-0.2-0.3-0.438-0.3-0.711s0.1-0.51,0.3-0.711     l11.714-11.714c0.2-0.2,0.438-0.3,0.711-0.3S25.511,16.922,25.711,17.122z"
           id="path29" /></g></g></g><g
     id="Down_x5F_icon"
     display="none"><g
       display="inline"
       id="g32"><path
         fill-rule="evenodd"
         clip-rule="evenodd"
         fill="none"
         stroke="#FFFFFF"
         stroke-width="1.5"
         stroke-miterlimit="10"
         d="    M25,49.25c13.394,0,24.25-10.857,24.25-24.251C49.25,11.608,38.394,0.75,25,0.75c-13.392,0-24.25,10.858-24.25,24.249    C0.75,38.393,11.608,49.25,25,49.25L25,49.25z"
         id="path34" /><path
         fill-rule="evenodd"
         clip-rule="evenodd"
         fill="#302E9E"
         stroke="#FFFFFF"
         stroke-width="1.5"
         stroke-miterlimit="10"
         d="    M25,49.25c13.394,0,24.25-10.857,24.25-24.251C49.25,11.608,38.394,0.75,25,0.75c-13.392,0-24.25,10.858-24.25,24.249    C0.75,38.393,11.608,49.25,25,49.25L25,49.25z"
         id="path36" /><g
         id="g38"><path
           fill="none"
           stroke="#FFFFFF"
           stroke-width="1.5"
           stroke-miterlimit="10"
           d="M25,33.178c-0.273,0-0.511-0.1-0.711-0.3     L12.575,21.164c-0.2-0.2-0.3-0.437-0.3-0.71s0.1-0.51,0.3-0.71l2.62-2.621c0.2-0.2,0.438-0.3,0.711-0.3s0.511,0.1,0.711,0.3     L25,25.505l8.383-8.383c0.2-0.2,0.438-0.3,0.711-0.3s0.511,0.1,0.711,0.3l2.62,2.621c0.2,0.2,0.3,0.437,0.3,0.71     s-0.1,0.51-0.3,0.71L25.711,32.878C25.511,33.078,25.273,33.178,25,33.178z"
           id="path40" /></g></g></g><g
     id="Right_x5F_icon"
     display="none"><g
       display="inline"
       id="g43"><path
         fill-rule="evenodd"
         clip-rule="evenodd"
         fill="none"
         stroke="#FFFFFF"
         stroke-width="1.5"
         stroke-miterlimit="10"
         d="    M49.25,25c0-13.394-10.857-24.25-24.251-24.25C11.608,0.75,0.75,11.606,0.75,25c0,13.392,10.858,24.25,24.249,24.25    C38.393,49.25,49.25,38.392,49.25,25L49.25,25z"
         id="path45" /><path
         fill-rule="evenodd"
         clip-rule="evenodd"
         fill="#302E9E"
         stroke="#FFFFFF"
         stroke-width="1.5"
         stroke-miterlimit="10"
         d="    M49.25,25c0-13.394-10.857-24.25-24.251-24.25C11.608,0.75,0.75,11.606,0.75,25c0,13.392,10.858,24.25,24.249,24.25    C38.393,49.25,49.25,38.392,49.25,25L49.25,25z"
         id="path47" /><g
         id="g49"><path
           fill="none"
           stroke="#FFFFFF"
           stroke-width="1.5"
           stroke-miterlimit="10"
           d="M33.178,25c0,0.273-0.1,0.511-0.3,0.711     L21.164,37.425c-0.2,0.2-0.437,0.3-0.71,0.3s-0.51-0.1-0.71-0.3l-2.621-2.62c-0.2-0.2-0.3-0.438-0.3-0.711s0.1-0.511,0.3-0.711     L25.505,25l-8.383-8.383c-0.2-0.2-0.3-0.438-0.3-0.711s0.1-0.511,0.3-0.711l2.621-2.62c0.2-0.2,0.437-0.3,0.71-0.3     s0.51,0.1,0.71,0.3l11.714,11.714C33.078,24.489,33.178,24.727,33.178,25z"
           id="path51" /></g></g></g><g
     id="left_x5F_icon"
     display="none"><g
       display="inline"
       id="g54"><path
         fill-rule="evenodd"
         clip-rule="evenodd"
         fill="none"
         stroke="#FFFFFF"
         stroke-width="1.5"
         stroke-miterlimit="10"
         d="    M0.75,25c0-13.394,10.857-24.25,24.251-24.25C38.393,0.75,49.25,11.606,49.25,25c0,13.392-10.857,24.25-24.249,24.25    C11.607,49.25,0.75,38.392,0.75,25L0.75,25z"
         id="path56" /><path
         fill-rule="evenodd"
         clip-rule="evenodd"
         fill="#302E9E"
         stroke="#FFFFFF"
         stroke-width="1.5"
         stroke-miterlimit="10"
         d="    M0.75,25c0-13.394,10.857-24.25,24.251-24.25C38.393,0.75,49.25,11.606,49.25,25c0,13.392-10.857,24.25-24.249,24.25    C11.607,49.25,0.75,38.392,0.75,25L0.75,25z"
         id="path58" /><g
         id="g60"><path
           fill="none"
           stroke="#FFFFFF"
           stroke-width="1.5"
           stroke-miterlimit="10"
           d="M17.122,24.289l11.714-11.714     c0.201-0.2,0.438-0.3,0.711-0.3s0.51,0.1,0.711,0.3l2.62,2.62c0.2,0.2,0.3,0.438,0.3,0.711s-0.1,0.511-0.3,0.711L24.495,25     l8.383,8.383c0.2,0.2,0.3,0.438,0.3,0.711s-0.1,0.511-0.3,0.711l-2.62,2.62c-0.201,0.2-0.438,0.3-0.711,0.3s-0.51-0.1-0.711-0.3     L17.122,25.711c-0.2-0.2-0.3-0.438-0.3-0.711S16.922,24.489,17.122,24.289z"
           id="path62" /></g></g></g><g
     id="Link_x5F_icon"
     display="none"><g
       display="inline"
       id="g65"><path
         fill-rule="evenodd"
         clip-rule="evenodd"
         fill="none"
         stroke="#FFFFFF"
         stroke-width="1.5"
         stroke-miterlimit="10"
         d="    M25,0.75c13.392,0,24.25,10.857,24.25,24.251C49.25,38.393,38.392,49.25,25,49.25c-13.394,0-24.25-10.857-24.25-24.249    C0.75,11.607,11.606,0.75,25,0.75L25,0.75z"
         id="path67" /><path
         fill-rule="evenodd"
         clip-rule="evenodd"
         fill="#2CBF67"
         stroke="#FFFFFF"
         stroke-width="1.5"
         stroke-miterlimit="10"
         d="    M25,0.75c13.392,0,24.25,10.857,24.25,24.251C49.25,38.393,38.392,49.25,25,49.25c-13.394,0-24.25-10.857-24.25-24.249    C0.75,11.607,11.606,0.75,25,0.75L25,0.75z"
         id="path69" /><g
         id="g71"><path
           fill="none"
           stroke="#FFFFFF"
           stroke-width="1.5"
           stroke-miterlimit="10"
           d="M10.854,29.041     c0-2.094,0.278-3.846,0.837-5.257c1.705-4.242,6.31-6.362,13.813-6.362h3.537V13.38c0-0.274,0.1-0.511,0.3-0.71     c0.2-0.2,0.437-0.3,0.71-0.3c0.274,0,0.511,0.1,0.711,0.3l8.083,8.083c0.2,0.2,0.3,0.437,0.3,0.71c0,0.274-0.1,0.511-0.3,0.71     l-8.083,8.084c-0.2,0.199-0.437,0.299-0.711,0.299c-0.273,0-0.51-0.1-0.71-0.299c-0.2-0.201-0.3-0.438-0.3-0.711v-4.042h-3.537     c-1.031,0-1.955,0.031-2.771,0.095c-0.815,0.063-1.626,0.176-2.432,0.339c-0.805,0.163-1.505,0.387-2.1,0.671     s-1.149,0.649-1.665,1.097s-0.938,0.979-1.264,1.596c-0.326,0.615-0.581,1.344-0.766,2.186c-0.184,0.842-0.276,1.795-0.276,2.857     c0,0.58,0.026,1.227,0.079,1.942c0,0.063,0.014,0.187,0.04,0.371s0.039,0.323,0.039,0.419c0,0.157-0.045,0.289-0.134,0.395     c-0.09,0.105-0.214,0.158-0.371,0.158c-0.169,0-0.316-0.09-0.442-0.27c-0.073-0.094-0.143-0.21-0.205-0.347     c-0.063-0.138-0.135-0.295-0.213-0.474c-0.079-0.18-0.135-0.305-0.166-0.379C11.522,33.162,10.854,30.789,10.854,29.041z"
           id="path73" /></g></g></g><g
     id="Plus_x5F_icon"
     display="none"><g
       display="inline"
       id="g76"><path
         fill-rule="evenodd"
         clip-rule="evenodd"
         fill="#F44584"
         stroke="#FFFFFF"
         stroke-width="1.5"
         stroke-miterlimit="10"
         d="    M25,0.75c13.394,0,24.25,10.858,24.25,24.251C49.25,38.393,38.394,49.25,25,49.25c-13.393,0-24.25-10.857-24.25-24.249    C0.75,11.608,11.607,0.75,25,0.75L25,0.75z"
         id="path78" /><g
         id="g80"><path
           fill="none"
           stroke="#FFFFFF"
           stroke-width="1.5"
           stroke-miterlimit="10"
           d="M13.886,26.516v-3.031     c0-0.421,0.147-0.778,0.442-1.073c0.295-0.295,0.652-0.442,1.073-0.442h6.567v-6.568c0-0.421,0.147-0.779,0.442-1.073     c0.295-0.295,0.652-0.442,1.073-0.442h3.032c0.42,0,0.778,0.147,1.073,0.442c0.294,0.294,0.442,0.652,0.442,1.073v6.568H34.6     c0.42,0,0.778,0.147,1.073,0.442c0.294,0.295,0.442,0.652,0.442,1.073v3.031c0,0.422-0.148,0.779-0.442,1.074     c-0.295,0.295-0.653,0.441-1.073,0.441h-6.567V34.6c0,0.421-0.148,0.778-0.442,1.072c-0.295,0.295-0.653,0.443-1.073,0.443     h-3.032c-0.421,0-0.778-0.148-1.073-0.443c-0.295-0.294-0.442-0.651-0.442-1.072v-6.568h-6.567c-0.421,0-0.778-0.146-1.073-0.441     S13.886,26.938,13.886,26.516z"
           id="path82" /></g></g></g><g
     id="Minus_x5F_ikon"
     display="none"><g
       display="inline"
       id="g85"><path
         fill-rule="evenodd"
         clip-rule="evenodd"
         fill="#4ED1CE"
         stroke="#FFFFFF"
         stroke-width="1.5"
         stroke-miterlimit="10"
         d="    M25,0.75c13.393,0,24.25,10.857,24.25,24.251C49.25,38.393,38.393,49.25,25,49.25S0.75,38.393,0.75,25.001    C0.75,11.607,11.607,0.75,25,0.75L25,0.75z"
         id="path87" /><g
         id="g89"><path
           fill="none"
           stroke="#FFFFFF"
           stroke-width="1.5"
           stroke-miterlimit="10"
           d="M13.886,26.516v-3.031     c0-0.421,0.147-0.779,0.442-1.073c0.294-0.295,0.652-0.442,1.073-0.442h19.197c0.421,0,0.779,0.147,1.074,0.442     c0.294,0.294,0.442,0.652,0.442,1.073v3.031c0,0.421-0.148,0.779-0.442,1.074c-0.295,0.295-0.653,0.441-1.074,0.441H15.401     c-0.421,0-0.779-0.146-1.073-0.441C14.033,27.295,13.886,26.937,13.886,26.516z"
           id="path91" /></g></g></g><g
     id="Layer_10"
     display="none"><g
       display="inline"
       id="g94"><path
         fill-rule="evenodd"
         clip-rule="evenodd"
         fill="none"
         stroke="#FFFFFF"
         stroke-width="1.5"
         stroke-miterlimit="10"
         d="    M0.75,25c0-13.394,10.857-24.25,24.251-24.25C38.393,0.75,49.25,11.606,49.25,25c0,13.392-10.857,24.25-24.249,24.25    C11.607,49.25,0.75,38.392,0.75,25L0.75,25z"
         id="path96" /><path
         fill-rule="evenodd"
         clip-rule="evenodd"
         fill="#302E9E"
         stroke="#FFFFFF"
         stroke-width="1.5"
         stroke-miterlimit="10"
         d="    M0.75,25c0-13.394,10.857-24.25,24.251-24.25C38.393,0.75,49.25,11.606,49.25,25c0,13.392-10.857,24.25-24.249,24.25    C11.607,49.25,0.75,38.392,0.75,25L0.75,25z"
         id="path98" /><g
         id="g100"><path
           fill="none"
           stroke="#FFFFFF"
           stroke-width="1.5"
           stroke-miterlimit="10"
           d="M33.272,32.583     c0,0.377-0.313,0.689-0.689,0.689H17.417c-0.377,0-0.689-0.313-0.689-0.689V17.417c0-0.377,0.313-0.689,0.689-0.689h15.166     c0.377,0,0.689,0.313,0.689,0.689V32.583z"
           id="path102" /></g></g></g><g
     id="Layer_10_copy"
     display="none"><path
       display="inline"
       fill-rule="evenodd"
       clip-rule="evenodd"
       fill="none"
       stroke="#FFFFFF"
       stroke-width="1.5"
       stroke-miterlimit="10"
       d="   M0.75,25c0-13.394,10.857-24.25,24.251-24.25C38.393,0.75,49.25,11.606,49.25,25c0,13.392-10.857,24.25-24.249,24.25   C11.607,49.25,0.75,38.392,0.75,25L0.75,25z"
       id="path105" /><path
       display="inline"
       fill-rule="evenodd"
       clip-rule="evenodd"
       fill="#BC0FAF"
       stroke="#FFFFFF"
       stroke-width="1.5"
       stroke-miterlimit="10"
       d="   M0.75,25c0-13.394,10.857-24.25,24.251-24.25C38.393,0.75,49.25,11.606,49.25,25c0,13.392-10.857,24.25-24.249,24.25   C11.607,49.25,0.75,38.392,0.75,25L0.75,25z"
       id="path107" /><g
       display="inline"
       id="g109"><g
         id="g111"><path
           fill="#FFFFFF"
           d="M31.5,14.097c0.67,0,1.214,0.563,1.214,1.258v14.677c0,1.848-2.669,2.517-4.047,2.517     c-1.379,0-4.048-0.669-4.048-2.517s2.669-2.516,4.048-2.516c0.834,0,1.669,0.157,2.429,0.511v-7.038l-9.714,3.106v9.291     c0,1.849-2.669,2.517-4.048,2.517s-4.047-0.668-4.047-2.517c0-1.847,2.669-2.517,4.047-2.517c0.834,0,1.67,0.159,2.428,0.513     V18.709c0-0.55,0.354-1.035,0.861-1.205l10.524-3.355C31.26,14.109,31.374,14.097,31.5,14.097 M31.5,12.597     c-0.309,0-0.586,0.044-0.848,0.136l-10.485,3.342c-1.149,0.386-1.905,1.442-1.905,2.634v10.715     c-0.303-0.036-0.613-0.054-0.928-0.054c-2.145,0-5.547,1.091-5.547,4.017s3.403,4.017,5.547,4.017     c2.145,0,5.548-1.091,5.548-4.017v-8.196l6.714-2.147v3.026c-0.303-0.036-0.613-0.054-0.929-0.054     c-2.145,0-5.548,1.09-5.548,4.016s3.403,4.017,5.548,4.017s5.547-1.091,5.547-4.017V15.355     C34.214,13.834,32.996,12.597,31.5,12.597L31.5,12.597z"
           id="path113" /></g></g></g><g
     id="Layer_12"
     display="none"><g
       display="inline"
       id="g116"><path
         fill-rule="evenodd"
         clip-rule="evenodd"
         fill="#3644F2"
         stroke="#FFFFFF"
         stroke-width="1.5"
         stroke-miterlimit="10"
         d="    M25,0.75c13.394,0,24.25,10.858,24.25,24.251C49.25,38.393,38.394,49.25,25,49.25c-13.393,0-24.25-10.857-24.25-24.249    C0.75,11.608,11.607,0.75,25,0.75L25,0.75z"
         id="path118" /><g
         id="g120"><g
           id="g122"><path
             fill="#FFFFFF"
             d="M19.573,33.33c0-1.85,0.938-3.471,2.346-4.445l0,0V14.323c0.001-1.699,1.38-3.078,3.079-3.078l0,0      c1.701,0,3.078,1.379,3.078,3.078l0,0v14.562c1.411,0.975,2.351,2.596,2.351,4.445l0,0c-0.001,2.996-2.432,5.426-5.429,5.426      l0,0C22.001,38.756,19.574,36.326,19.573,33.33L19.573,33.33z M23.168,14.323v15.255l-0.305,0.182      c-1.222,0.735-2.043,2.051-2.043,3.57l0,0c0.005,2.307,1.87,4.175,4.178,4.179l0,0c2.308-0.004,4.176-1.872,4.18-4.179l0,0      c0-1.522-0.821-2.835-2.045-3.57l0,0l0.321-0.537h0.622h-0.622l-0.321,0.537l-0.303-0.182V14.323      c-0.002-1.01-0.82-1.828-1.832-1.83l0,0C23.987,12.495,23.168,13.313,23.168,14.323L23.168,14.323z"
             id="path124" /></g><path
           fill="#FFFFFF"
           d="M25.93,30.795V20.612h-1.767v10.183c-1.06,0.367-1.82,1.369-1.82,2.552c0,1.495,1.209,2.704,2.702,2.704     s2.703-1.209,2.703-2.704C27.748,32.164,26.988,31.162,25.93,30.795z"
           id="path126" /></g></g></g><path
     style="clip-rule:evenodd;fill:#302e9e;fill-rule:evenodd;stroke:#ffffff;stroke-width:1.5;stroke-miterlimit:10;fill-opacity:1"
     inkscape:connector-curvature="0"
     id="path129"
     d="m 25,0.75 c 13.394,0 24.25,10.858 24.25,24.251 C 49.25,38.393 38.394,49.25 25,49.25 11.607,49.25 0.75,38.393 0.75,25.001 0.75,11.608 11.607,0.75 25,0.75 l 0,0 z"
     stroke-miterlimit="10" /><g
     id="g141" /><g
     id="g143" /><g
     id="g145" /><g
     id="g147" /><g
     id="g149" /><g
     id="g151" /><g
     id="g153" /><g
     id="g155" /><g
     id="g157" /><g
     id="g159" /><g
     id="g161" /><g
     id="g163" /><g
     id="g165" /><g
     id="g167" /><g
     id="g169" /><g
     id="g3141"
     transform="matrix(0.125,0,0,0.125,2.4375,2.466407)"><g
       id="status_x5F_automatic"><g
         id="g3078"><g
           id="g3080"><g
             id="g3082"><polygon
               id="polygon3084"
               points="180.744,155.583 180.5,74.583 287.301,155.583 "
               style="fill:#ffffff" /><g
               id="g3086"><path
                 id="path3088"
                 d="m 185.744,155.583 c -0.081,-27 -0.163,-54 -0.244,-81 -2.508,1.439 -5.016,2.878 -7.523,4.317 35.59,26.992 71.18,53.984 106.77,80.976 0.011,0.008 0.021,0.016 0.031,0.024 0.841,-3.106 1.683,-6.211 2.523,-9.317 -35.519,0 -71.038,0 -106.557,0 -6.449,0 -6.449,10 0,10 35.519,0 71.038,0 106.557,0 5.402,0 6.252,-6.489 2.523,-9.317 -35.59,-26.992 -71.18,-53.984 -106.77,-80.976 -0.011,-0.008 -0.021,-0.016 -0.031,-0.024 -3.125,-2.371 -7.534,0.868 -7.523,4.317 0.082,27 0.163,54 0.244,81 0.02,6.448 10.02,6.45 10,0 z"
                 style="fill:#ffffff"
                 inkscape:connector-curvature="0" /></g></g><g
             id="g3090"><polygon
               id="polygon3092"
               points="180.256,155.583 180.5,74.584 73.699,155.583 "
               style="fill:#ffffff" /><g
               id="g3094"><path
                 id="path3096"
                 d="m 185.256,155.583 c 0.081,-27 0.163,-54 0.244,-81 0.011,-3.45 -4.397,-6.688 -7.523,-4.317 -35.59,26.992 -71.18,53.984 -106.77,80.976 -0.011,0.008 -0.021,0.016 -0.031,0.023 -3.729,2.828 -2.879,9.317 2.523,9.317 35.519,0 71.038,0 106.557,0 6.448,0 6.448,-10 0,-10 -35.519,0 -71.038,0 -106.557,0 0.841,3.106 1.683,6.211 2.523,9.317 35.59,-26.992 71.18,-53.984 106.77,-80.976 0.011,-0.008 0.021,-0.016 0.031,-0.023 -2.508,-1.439 -5.016,-2.878 -7.523,-4.317 -0.082,27 -0.163,54 -0.244,81 -0.02,6.45 9.98,6.448 10,0 z"
                 style="fill:#ffffff"
                 inkscape:connector-curvature="0" /></g></g></g><path
           id="path3098"
           d="m 268.5,278.988 c 0,3.919 -3.927,7.096 -8.771,7.096 H 101.938 c -4.844,0 -8.771,-3.177 -8.771,-7.096 V 149.607 c 0,-3.918 175.333,-3.918 175.333,0 v 129.381 z"
           style="fill:none;stroke:#ffffff;stroke-width:10;stroke-miterlimit:10"
           inkscape:connector-curvature="0" /></g><g
         id="g3100"><g
           id="g3102"><path
             id="path3104"
             d="m 145.018,230.775 c 0.213,-0.662 1.432,-0.511 0.219,-0.511 -0.886,0 -1.772,0 -2.658,0 -2.224,0 -4.448,0 -6.671,0 -1.612,0 -3.224,0 -4.835,0 -0.898,0 0.728,2.24 0.728,1.001 0,-0.594 0,-1.188 0,-1.781 0,-7.535 0,-15.069 0,-22.604 0,1.549 -1.775,1.391 -0.344,1.391 0.886,0 1.772,0 2.658,0 2.532,0 5.063,0 7.595,0 1.384,0 2.769,0 4.153,0 -1.09,0 -0.969,-2.343 -0.969,-0.673 0,0.691 0,1.384 0,2.075 0,7.345 0,14.688 0,22.033 0,4.514 7,4.514 7,0 0,-4.146 0,-8.292 0,-12.438 0,-3.919 1.098,-9.568 -0.125,-13.369 -1.864,-5.794 -8.055,-4.628 -12.926,-4.628 -5.035,0 -11.977,-1.403 -13.917,4.628 -1.136,3.531 -0.125,8.752 -0.125,12.388 0,4.474 0,8.946 0,13.42 0,6.759 8.678,5.559 13.051,5.559 5.035,0 11.977,1.403 13.917,-4.628 1.386,-4.311 -5.374,-6.142 -6.751,-1.863 z"
             style="fill:#ffffff"
             inkscape:connector-curvature="0" /></g></g><g
         id="g3106"><g
           id="g3108"><path
             id="path3110"
             d="m 172.783,230.032 c -0.042,0.242 1.561,0.232 -0.292,0.232 -1.313,0 -2.627,0 -3.941,0 -2.731,0 -5.463,0 -8.195,0 -0.586,0 -1.172,0 -1.759,0 1.172,0 0.969,1.232 0.969,-0.215 0,-1.78 0,-3.561 0,-5.341 0,-9.19 0,-18.381 0,-27.571 0,0.84 -1.772,0.66 0.167,0.66 1.313,0 2.627,0 3.941,0 2.731,0 5.463,0 8.195,0 0.586,0 1.172,0 1.759,0 -1.173,0 -0.969,-1.232 -0.969,0.215 0,1.78 0,3.561 0,5.341 0,9.203 0,18.406 0,27.609 0,4.514 7,4.514 7,0 0,-10.983 0,-21.967 0,-32.95 0,-6.587 -4.939,-7.215 -10.184,-7.215 -5.453,0 -15.468,-2.089 -16.784,5.371 -0.808,4.581 -0.125,9.771 -0.125,14.398 0,6.494 0,12.988 0,19.482 0,6.588 4.939,7.215 10.185,7.215 5.453,0 15.467,2.089 16.783,-5.371 0.778,-4.412 -5.967,-6.299 -6.75,-1.86 z"
             style="fill:#ffffff"
             inkscape:connector-curvature="0" /></g></g><g
         id="g3112"><g
           id="g3114"><path
             id="path3116"
             d="m 200.58,230.005 c 0.76,0.171 0.905,0.244 0.438,0.22 -0.494,0 -0.989,0 -1.483,0 -1.714,0 -3.428,0 -5.142,0 -2.609,0 -5.219,0 -7.828,0 0.942,0 0.798,1.241 0.798,0.016 0,-0.82 0,-1.642 0,-2.462 0,-2.648 0,-5.297 0,-7.945 0,-11.316 0,-22.633 0,-33.948 0,0.968 -1.244,0.684 0.921,0.684 1.714,0 3.428,0 5.142,0 2.609,0 5.219,0 7.828,0 -0.942,0 -0.798,-1.244 -0.798,-0.018 0,0.82 0,1.642 0,2.462 0,2.942 0,5.884 0,8.826 0,11.032 0,22.064 0,33.097 0,4.514 7,4.514 7,0 0,-12.426 0,-24.851 0,-37.276 0,-4.817 1.08,-10.228 -3.334,-13.394 -1.836,-1.316 -5.763,-0.697 -7.829,-0.697 -3.242,0 -6.485,0 -9.728,0 -6.507,0 -6.202,6.676 -6.202,11.232 0,7.511 0,15.021 0,22.531 0,5.718 0,11.436 0,17.154 0,7.647 7.736,6.738 13.063,6.738 5.1,0 12.628,1.372 13.905,-5.358 0.836,-4.412 -5.91,-6.294 -6.751,-1.862 z"
             style="fill:#ffffff"
             inkscape:connector-curvature="0" /></g></g><g
         id="g3118"><g
           id="g3120"><path
             id="path3122"
             d="m 228.309,230.057 c -0.023,0.12 1.377,0.127 0.112,0.127 -0.608,0 -1.218,0 -1.826,0 -1.815,0 -3.631,0 -5.445,0 -1.727,0 -3.453,0 -5.181,0 -0.498,0 -0.996,0 -1.494,0 -0.824,0 0.615,1.275 0.615,0.607 0,-4.552 0,-9.103 0,-13.654 0,-14.23 0,-28.461 0,-42.691 0,-0.648 0,-1.296 0,-1.944 0,-1.137 -0.938,0.266 -0.615,0.266 3.491,0 6.981,0 10.472,0 1.284,0 2.568,0 3.853,0 0.323,0 -0.615,-1.403 -0.615,-0.266 0,1.909 0,3.819 0,5.728 0,14.816 0,29.634 0,44.45 0,2.77 0,5.538 0,8.308 0,4.514 7,4.514 7,0 0,-11.651 0,-23.304 0,-34.955 0,-6.716 0,-13.432 0,-20.147 0,-4.339 -0.167,-10.118 -6.147,-10.118 -2.952,0 -5.903,0 -8.854,0 -2.264,0 -6.756,-0.753 -8.792,0.689 -4.103,2.907 -3.3,7.341 -3.3,11.773 0,14.816 0,29.634 0,44.45 0,4.881 -1.472,14.504 6.065,14.504 5.854,0 19.358,2.776 20.903,-5.266 0.845,-4.41 -5.901,-6.291 -6.751,-1.861 z"
             style="fill:#ffffff"
             inkscape:connector-curvature="0" /></g></g><g
         id="g3124"><path
           id="path3126"
           d="m 145.878,274.41 -1.593,-6.863 h -9.062 l -1.538,6.863 h -7.029 c 1.611,-5.855 3.24,-11.191 4.888,-16.008 1.647,-4.815 3.24,-9.384 4.778,-13.703 h 7.359 c 1.61,4.352 3.212,8.968 4.805,13.848 1.593,4.881 3.139,10.168 4.641,15.863 h -7.249 z m -6.041,-23.951 c -0.366,1.12 -0.706,2.184 -1.016,3.191 -0.312,1.008 -0.604,2 -0.878,2.977 -0.275,0.977 -0.531,1.961 -0.769,2.951 -0.238,0.992 -0.467,2.016 -0.687,3.072 h 6.645 c -0.22,-1.057 -0.439,-2.08 -0.659,-3.072 -0.219,-0.99 -0.467,-1.975 -0.741,-2.951 -0.274,-0.976 -0.568,-1.969 -0.878,-2.977 -0.312,-1.007 -0.651,-2.071 -1.017,-3.191 z"
           style="fill:#ffffff"
           inkscape:connector-curvature="0" /><path
           id="path3128"
           d="m 167.24,275.035 c -2.196,0 -4.036,-0.264 -5.519,-0.793 -1.482,-0.527 -2.664,-1.287 -3.542,-2.279 -0.879,-0.992 -1.501,-2.191 -1.867,-3.6 -0.366,-1.408 -0.549,-2.977 -0.549,-4.705 v -18.959 h 6.81 v 18.576 c 0,1.248 0.073,2.295 0.219,3.143 0.146,0.85 0.393,1.529 0.742,2.041 0.347,0.512 0.832,0.881 1.455,1.104 0.622,0.225 1.409,0.336 2.361,0.336 0.952,0 1.739,-0.111 2.362,-0.336 0.622,-0.223 1.116,-0.6 1.482,-1.127 0.366,-0.529 0.622,-1.217 0.769,-2.064 0.146,-0.848 0.22,-1.896 0.22,-3.145 V 244.7 h 6.754 v 18.959 c 0,1.729 -0.184,3.297 -0.549,4.705 -0.367,1.408 -1.007,2.607 -1.922,3.6 -0.916,0.992 -2.124,1.752 -3.625,2.279 -1.501,0.528 -3.368,0.792 -5.601,0.792 z"
           style="fill:#ffffff"
           inkscape:connector-curvature="0" /><path
           id="path3130"
           d="m 207.165,244.699 v 4.896 h -8.951 v 24.815 h -6.81 v -24.815 h -8.951 v -4.896 h 24.712 z"
           style="fill:#ffffff"
           inkscape:connector-curvature="0" /><path
           id="path3132"
           d="m 210.021,259.531 c 0,-5.12 1.078,-8.984 3.239,-11.593 2.16,-2.607 5.163,-3.911 9.007,-3.911 3.99,0 7.029,1.304 9.115,3.911 2.088,2.608 3.131,6.473 3.131,11.593 0,5.119 -1.063,8.984 -3.186,11.592 -2.123,2.608 -5.125,3.912 -9.006,3.912 -3.991,0 -7.039,-1.305 -9.144,-3.912 -2.105,-2.607 -3.156,-6.473 -3.156,-11.592 z m 6.864,0 c 0,1.439 0.064,2.791 0.193,4.055 0.127,1.266 0.384,2.361 0.769,3.289 0.384,0.928 0.924,1.664 1.62,2.207 0.695,0.545 1.629,0.816 2.801,0.816 1.135,0 2.059,-0.271 2.773,-0.816 0.713,-0.543 1.263,-1.287 1.646,-2.23 0.385,-0.945 0.641,-2.041 0.77,-3.289 0.128,-1.248 0.191,-2.592 0.191,-4.031 0,-1.44 -0.063,-2.792 -0.191,-4.057 -0.129,-1.264 -0.385,-2.359 -0.77,-3.288 -0.384,-0.928 -0.924,-1.663 -1.619,-2.208 -0.696,-0.543 -1.63,-0.816 -2.801,-0.816 -1.172,0 -2.105,0.273 -2.801,0.816 -0.696,0.545 -1.236,1.289 -1.62,2.232 -0.385,0.943 -0.642,2.039 -0.769,3.287 -0.128,1.248 -0.192,2.593 -0.192,4.033 z"
           style="fill:#ffffff"
           inkscape:connector-curvature="0" /></g></g><g
       id="Ebene_1" /></g></svg>