<?xml version="1.0" encoding="UTF-8" standalone="no"?>
<!-- Generator: Adobe Illustrator 16.0.0, SVG Export Plug-In . SVG Version: 6.00 Build 0)  -->

<svg
   xmlns:dc="http://purl.org/dc/elements/1.1/"
   xmlns:cc="http://creativecommons.org/ns#"
   xmlns:rdf="http://www.w3.org/1999/02/22-rdf-syntax-ns#"
   xmlns:svg="http://www.w3.org/2000/svg"
   xmlns="http://www.w3.org/2000/svg"
   xmlns:sodipodi="http://sodipodi.sourceforge.net/DTD/sodipodi-0.dtd"
   xmlns:inkscape="http://www.inkscape.org/namespaces/inkscape"
   version="1.1"
   x="0px"
   y="0px"
   width="50px"
   height="50px"
   viewBox="0 0 50 50"
   style="enable-background:new 0 0 50 50;"
   xml:space="preserve"
   id="svg2"
   inkscape:version="0.91 r13725"
   sodipodi:docname="Comfort_icon.svg"><metadata
   id="metadata20"><rdf:RDF><cc:Work
       rdf:about=""><dc:format>image/svg+xml</dc:format><dc:type
         rdf:resource="http://purl.org/dc/dcmitype/StillImage" /><dc:title></dc:title></cc:Work></rdf:RDF></metadata><defs
   id="defs18"><pattern
   y="0"
   x="0"
   height="6"
   width="6"
   patternUnits="userSpaceOnUse"
   id="EMFhbasepattern" />
	

		
		
		
	
			
		</defs><sodipodi:namedview
   pagecolor="#ffffff"
   bordercolor="#666666"
   borderopacity="1"
   objecttolerance="10"
   gridtolerance="10"
   guidetolerance="10"
   inkscape:pageopacity="0"
   inkscape:pageshadow="2"
   inkscape:window-width="1920"
   inkscape:window-height="1017"
   id="namedview16"
   showgrid="false"
   inkscape:zoom="13.350176"
   inkscape:cx="18.471607"
   inkscape:cy="26.294085"
   inkscape:window-x="-8"
   inkscape:window-y="-8"
   inkscape:window-maximized="1"
   inkscape:current-layer="svg2" />
<path
   inkscape:connector-curvature="0"
   style="clip-rule:evenodd;fill:none;fill-rule:evenodd;stroke:#ffffff;stroke-width:1.5;stroke-miterlimit:10"
   d="M 25,49.25 C 38.394,49.25 49.25,38.393 49.25,24.999 49.25,11.608 38.394,0.75 25,0.75 11.608,0.75 0.75,11.608 0.75,24.999 0.75,38.393 11.608,49.25 25,49.25 l 0,0 z"
   id="path7" /><path
   inkscape:connector-curvature="0"
   style="clip-rule:evenodd;fill:#302e9e;fill-rule:evenodd;stroke:#ffffff;stroke-width:1.5;stroke-miterlimit:10"
   d="M 25,49.25 C 38.394,49.25 49.25,38.393 49.25,24.999 49.25,11.608 38.394,0.75 25,0.75 11.608,0.75 0.75,11.608 0.75,24.999 0.75,38.393 11.608,49.25 25,49.25 l 0,0 z"
   id="path9" />
<g
   id="Layer_1">
</g>
<g
   id="g4625"
   transform="matrix(0.25,0,0,0.25,-16.38697,-85.608644)"
   style="stroke-width:6;stroke-miterlimit:10;stroke-dasharray:none"><path
     inkscape:connector-curvature="0"
     id="path4579"
     d="m 122.68303,433.69104 43.48706,-43.84063 19.44544,19.44544 0,-16.61701 15.55635,0 0,33.94113 7.24784,7.24784 0,62.40218 -85.38314,0 z"
     style="fill:none;fill-rule:evenodd;stroke:#ffffff;stroke-width:6;stroke-linecap:butt;stroke-linejoin:miter;stroke-miterlimit:10;stroke-dasharray:none;stroke-opacity:1" /><ellipse
     ry="9.0144806"
     rx="7.6394801"
     cy="424.125"
     cx="165.5508"
     id="path4581"
     style="opacity:1;fill:none;fill-opacity:0.41081082;stroke:#ffffff;stroke-width:6;stroke-linejoin:round;stroke-miterlimit:10;stroke-dasharray:none;stroke-opacity:1" /><path
     inkscape:connector-curvature="0"
     id="path4602"
     d="m 152.29803,435.81236 26.51651,0 -2.47487,33.23401 -3.18198,0.17678 0,20.5061 -14.67247,0 0,-20.32932 -3.0052,0 z"
     style="fill:none;fill-rule:evenodd;stroke:#ffffff;stroke-width:6;stroke-linecap:butt;stroke-linejoin:miter;stroke-miterlimit:10;stroke-dasharray:none;stroke-opacity:1" /></g></svg>