<?xml version="1.0" encoding="UTF-8" standalone="no"?>
<!-- Generator: Adobe Illustrator 16.0.0, SVG Export Plug-In . SVG Version: 6.00 Build 0)  -->

<svg
   xmlns:dc="http://purl.org/dc/elements/1.1/"
   xmlns:cc="http://creativecommons.org/ns#"
   xmlns:rdf="http://www.w3.org/1999/02/22-rdf-syntax-ns#"
   xmlns:svg="http://www.w3.org/2000/svg"
   xmlns="http://www.w3.org/2000/svg"
   xmlns:sodipodi="http://sodipodi.sourceforge.net/DTD/sodipodi-0.dtd"
   xmlns:inkscape="http://www.inkscape.org/namespaces/inkscape"
   version="1.1"
   x="0px"
   y="0px"
   width="50px"
   height="50px"
   viewBox="0 0 50 50"
   style="enable-background:new 0 0 50 50;"
   xml:space="preserve"
   id="svg2"
   inkscape:version="0.91 r13725"
   sodipodi:docname="Eco_icon_green.svg"><metadata
   id="metadata20"><rdf:RDF><cc:Work
       rdf:about=""><dc:format>image/svg+xml</dc:format><dc:type
         rdf:resource="http://purl.org/dc/dcmitype/StillImage" /><dc:title></dc:title></cc:Work></rdf:RDF></metadata><defs
   id="defs18"><pattern
   y="0"
   x="0"
   height="6"
   width="6"
   patternUnits="userSpaceOnUse"
   id="EMFhbasepattern" />
	

		
		
		
	
			
		</defs><sodipodi:namedview
   pagecolor="#ffffff"
   bordercolor="#666666"
   borderopacity="1"
   objecttolerance="10"
   gridtolerance="10"
   guidetolerance="10"
   inkscape:pageopacity="0"
   inkscape:pageshadow="2"
   inkscape:window-width="1366"
   inkscape:window-height="705"
   id="namedview16"
   showgrid="false"
   inkscape:zoom="6.675088"
   inkscape:cx="7.3819843"
   inkscape:cy="28.60865"
   inkscape:window-x="1912"
   inkscape:window-y="304"
   inkscape:window-maximized="1"
   inkscape:current-layer="svg2" />
<path
   inkscape:connector-curvature="0"
   style="clip-rule:evenodd;fill:none;fill-rule:evenodd;stroke:#ffffff;stroke-width:1.5;stroke-miterlimit:10"
   d="M 25,49.25 C 38.394,49.25 49.25,38.393 49.25,24.999 49.25,11.608 38.394,0.75 25,0.75 11.608,0.75 0.75,11.608 0.75,24.999 0.75,38.393 11.608,49.25 25,49.25 l 0,0 z"
   id="path7" /><path
   inkscape:connector-curvature="0"
   style="clip-rule:evenodd;fill:#439e2e;fill-rule:evenodd;stroke:#ffffff;stroke-width:1.5;stroke-miterlimit:10;fill-opacity:1"
   d="M 25,49.25 C 38.394,49.25 49.25,38.393 49.25,24.999 49.25,11.608 38.394,0.75 25,0.75 11.608,0.75 0.75,11.608 0.75,24.999 0.75,38.393 11.608,49.25 25,49.25 l 0,0 z"
   id="path9" />
<g
   id="Layer_1">
</g>
<path
   style="fill:none;fill-rule:evenodd;stroke:#ffffff;stroke-width:1.5;stroke-linecap:butt;stroke-linejoin:miter;stroke-miterlimit:4;stroke-dasharray:none;stroke-opacity:1"
   d="m 13.789314,27.678114 c 0,0 -7.1038996,-15.373219 23.35244,-14.125729 4.80717,0.19691 -0.80371,14.048469 -6.86186,18.431449 -6.5709,4.75393 -13.85143,0.0604 -13.85143,0.0604 l -1.75943,4.02369 -3.27894,-2.65392 c 0,0 3.44464,-3.72484 8.70563,-7.12614 3.44545,-2.22753 8.99446,-4.267399 10.24823,-5.201769 0.43425,-0.32362 -5.96885,1.28802 -8.71945,2.390599 -4.92228,1.97309 -7.83519,4.20141 -7.83519,4.20141 z"
   id="path4828"
   inkscape:connector-curvature="0"
   sodipodi:nodetypes="csscccsssc" /></svg>